<?xml version="1.0" standalone="no"?>
<!DOCTYPE svg PUBLIC "-//W3C//DTD SVG 20010904//EN"
 "http://www.w3.org/TR/2001/REC-SVG-20010904/DTD/svg10.dtd">
<svg version="1.0" xmlns="http://www.w3.org/2000/svg"
 width="50.000000pt" height="50.000000pt" viewBox="0 0 50.000000 50.000000"
 preserveAspectRatio="xMidYMid meet">
<metadata>
Created by potrace 1.16, written by Peter Selinger 2001-2019
</metadata>
<g transform="translate(0.000000,50.000000) scale(0.100000,-0.100000)"
fill="#000000" stroke="none">
<path d="M125 478 c-3 -8 -4 -115 -3 -238 l3 -225 125 0 125 0 0 235 0 235
-123 3 c-93 2 -124 0 -127 -10z m223 -20 c17 -17 17 -399 0 -416 -16 -16 -180
-16 -196 0 -17 17 -17 399 0 416 7 7 44 12 98 12 54 0 91 -5 98 -12z"/>
</g>
</svg>
