<?xml version="1.0" standalone="no"?>
<!DOCTYPE svg PUBLIC "-//W3C//DTD SVG 20010904//EN"
 "http://www.w3.org/TR/2001/REC-SVG-20010904/DTD/svg10.dtd">
<svg version="1.0" xmlns="http://www.w3.org/2000/svg"
 width="48.000000pt" height="48.000000pt" viewBox="0 0 48.000000 48.000000"
 preserveAspectRatio="xMidYMid meet">
<metadata>
Created by potrace 1.16, written by Peter Selinger 2001-2019
</metadata>
<g transform="translate(0.000000,48.000000) scale(0.100000,-0.100000)"
fill="#000000" stroke="none">
<path d="M77 402 c-14 -16 -17 -43 -17 -164 0 -174 2 -178 98 -178 46 0 62 4
62 14 0 9 -17 15 -51 18 -27 3 -56 11 -62 17 -17 17 -16 246 1 263 8 8 45 14
92 17 60 2 80 7 80 17 0 11 -20 14 -93 14 -78 0 -97 -3 -110 -18z"/>
<path d="M300 406 c0 -8 15 -17 35 -20 27 -5 39 -14 46 -34 14 -37 8 -227 -8
-243 -7 -7 -40 -15 -73 -17 -42 -3 -60 -8 -60 -18 0 -11 18 -14 73 -14 106 0
107 1 107 182 0 128 -2 147 -18 161 -23 21 -102 23 -102 3z"/>
<path d="M158 343 c-70 -18 18 -178 112 -203 46 -12 66 -6 74 23 8 31 -28 60
-65 52 -38 -9 -73 26 -64 62 6 24 -17 74 -33 72 -4 -1 -14 -3 -24 -6z"/>
</g>
</svg>
