<?xml version="1.0" standalone="no"?>
<!DOCTYPE svg PUBLIC "-//W3C//DTD SVG 20010904//EN"
 "http://www.w3.org/TR/2001/REC-SVG-20010904/DTD/svg10.dtd">
<svg version="1.0" xmlns="http://www.w3.org/2000/svg"
 width="24.000000pt" height="24.000000pt" viewBox="0 0 24.000000 24.000000"
 preserveAspectRatio="xMidYMid meet">
<metadata>
Created by potrace 1.16, written by Peter Selinger 2001-2019
</metadata>
<g transform="translate(0.000000,24.000000) scale(0.100000,-0.100000)"
fill="#000000" stroke="none">
<path d="M0 120 l0 -120 120 0 120 0 0 120 0 120 -120 0 -120 0 0 -120z m225
0 l0 -105 -105 0 -105 0 -3 94 c-1 52 0 101 2 108 4 11 29 13 108 11 l103 -3
0 -105z"/>
<path d="M103 168 c-78 -32 -93 -55 -43 -64 25 -5 30 -11 30 -35 0 -30 24 -41
33 -16 4 10 7 9 18 0 30 -29 45 -15 57 51 21 112 21 112 -95 64z"/>
</g>
</svg>
