<?xml version="1.0" standalone="no"?>
<!DOCTYPE svg PUBLIC "-//W3C//DTD SVG 20010904//EN"
 "http://www.w3.org/TR/2001/REC-SVG-20010904/DTD/svg10.dtd">
<svg version="1.0" xmlns="http://www.w3.org/2000/svg"
 width="731.000000pt" height="190.000000pt" viewBox="0 0 731.000000 190.000000"
 preserveAspectRatio="xMidYMid meet">
<metadata>
Created by potrace 1.16, written by Peter Selinger 2001-2019
</metadata>
<g transform="translate(0.000000,190.000000) scale(0.100000,-0.100000)"
fill="#000000" stroke="none">
<path d="M2985 1515 c-16 -15 -25 -36 -25 -55 l0 -30 -36 40 c-59 65 -147 77
-208 29 -24 -19 -27 -19 -43 -4 -40 41 -94 45 -130 9 l-25 -25 -23 21 c-44 41
-136 31 -143 -16 -2 -11 15 -56 38 -101 28 -56 40 -93 40 -122 0 -53 12 -77
51 -96 32 -17 91 -12 107 9 5 6 12 34 15 63 3 29 14 67 24 85 l17 33 7 -60 c6
-51 12 -64 42 -91 36 -33 90 -54 140 -54 32 0 94 24 119 47 16 14 19 14 33 -1
29 -29 56 -38 130 -43 64 -5 79 -3 111 16 l38 23 38 -22 c42 -23 86 -21 113 6
13 14 17 13 37 0 34 -24 63 -19 92 15 35 41 33 63 -10 95 l-35 27 25 24 c64
59 37 145 -57 180 -45 16 -149 16 -172 -1 -16 -12 -23 -11 -49 5 -42 26 -72
24 -103 -7 -14 -14 -28 -22 -32 -17 -13 19 -57 43 -79 43 -12 0 -34 -11 -47
-25z m83 -7 c5 -7 12 -60 14 -116 4 -72 9 -107 19 -112 7 -5 16 -7 19 -5 4 2
10 53 13 112 7 115 16 133 63 133 40 0 47 -23 48 -155 1 -123 1 -125 -27 -152
-25 -26 -33 -28 -106 -27 -123 1 -124 1 -128 168 -2 95 0 143 8 152 14 17 63
18 77 2z m-600 -11 c7 -7 16 -37 23 -66 13 -61 31 -63 41 -3 11 64 24 82 61
82 18 0 38 -4 46 -9 20 -13 8 -63 -31 -125 -21 -34 -34 -70 -39 -110 -8 -69
-15 -78 -64 -79 -44 -1 -55 13 -55 75 0 35 -10 64 -40 120 -42 78 -47 97 -28
116 16 16 73 15 86 -1z m415 -17 c35 -30 67 -107 67 -161 0 -44 -24 -93 -54
-113 -34 -21 -119 -25 -164 -7 -47 20 -65 55 -64 124 1 69 39 157 74 175 13 6
42 11 65 11 33 1 50 -5 76 -29z m613 -1 c20 -19 24 -31 22 -64 -3 -36 -7 -42
-45 -60 -48 -23 -52 -30 -20 -39 12 -3 35 -16 51 -29 35 -29 31 -66 -10 -87
-25 -14 -28 -13 -58 23 -37 45 -46 46 -46 8 0 -23 -6 -31 -30 -40 -20 -6 -39
-7 -55 -1 l-25 10 4 146 c3 106 8 149 18 156 7 5 48 7 91 5 64 -3 81 -8 103
-28z"/>
<path d="M296 1507 l-24 -24 23 -130 c12 -71 27 -139 33 -150 27 -49 121 -65
163 -27 16 14 21 13 59 -6 53 -27 103 -21 126 15 l16 25 25 -20 c54 -43 175
-50 231 -14 25 17 30 69 9 98 -15 21 -14 101 3 120 6 8 10 31 8 52 -5 58 -41
79 -137 79 -50 0 -84 -5 -94 -13 -13 -11 -21 -11 -46 2 -65 34 -116 11 -126
-58 -7 -43 -7 -44 -26 -25 -23 23 -56 24 -79 4 -16 -14 -18 -13 -23 22 -11 67
-95 96 -141 50z m93 -11 c6 -7 14 -45 17 -82 7 -94 14 -134 22 -134 4 0 15 33
25 73 10 39 23 77 28 82 17 17 45 -28 59 -94 7 -34 16 -61 20 -61 5 0 11 37
14 83 10 123 14 136 42 143 13 3 36 3 50 0 27 -7 27 -7 20 -79 -9 -100 -33
-208 -51 -226 -19 -19 -83 -18 -102 2 -8 8 -18 29 -22 46 -9 45 -22 43 -35 -4
-13 -46 -50 -70 -91 -59 -39 10 -51 37 -74 174 -21 118 -21 125 -4 137 22 17
68 16 82 -1z m525 1 c12 -9 17 -23 14 -47 -3 -34 -4 -35 -50 -38 -60 -4 -67
-29 -10 -34 32 -3 37 -6 37 -28 0 -22 -5 -25 -37 -28 -57 -5 -50 -30 10 -34
46 -3 47 -3 50 -40 2 -27 -1 -39 -15 -46 -52 -26 -159 -20 -191 11 -13 13 -13
32 -2 145 11 116 15 131 34 140 31 15 139 14 160 -1z"/>
<path d="M1069 1511 c-22 -17 -23 -26 -27 -168 l-4 -150 36 -22 c44 -27 94
-23 126 11 16 17 23 19 32 10 15 -15 55 -16 60 -1 2 6 22 0 48 -15 52 -30 65
-31 103 -11 21 10 34 12 47 5 35 -19 80 -12 105 16 14 15 25 22 25 16 0 -6 16
-20 36 -32 32 -20 39 -21 78 -10 34 9 49 9 66 0 27 -14 83 -6 100 15 11 14 15
14 36 0 30 -19 49 -19 79 1 23 15 27 15 53 -2 38 -26 167 -26 205 -1 30 20 37
67 14 102 -15 25 -15 93 1 122 29 52 4 106 -56 123 -55 15 -112 12 -158 -9
-40 -18 -41 -18 -65 0 -30 24 -51 24 -79 1 -22 -18 -24 -18 -61 2 -30 16 -43
18 -65 11 -38 -14 -54 -48 -55 -120 l-1 -60 -25 73 c-28 83 -61 112 -123 112
-61 0 -83 -19 -106 -90 l-21 -65 -7 53 c-11 75 -58 114 -121 98 -18 -5 -32
-24 -56 -76 -18 -39 -36 -70 -39 -70 -4 0 -17 25 -29 55 -37 88 -99 119 -152
76z m91 -16 c6 -7 26 -51 43 -95 18 -45 36 -82 40 -83 5 -1 24 36 43 82 40 99
49 111 83 111 53 0 55 -8 59 -164 l4 -146 -27 -10 c-19 -7 -34 -7 -53 2 -24
12 -28 20 -32 78 l-6 65 -28 -63 c-16 -34 -34 -61 -40 -60 -6 2 -22 27 -36 56
-14 28 -28 52 -32 52 -4 0 -8 -26 -10 -57 -3 -51 -6 -59 -30 -71 -19 -9 -34
-9 -53 -2 l-27 10 4 145 c3 157 6 165 59 165 15 0 32 -7 39 -15z m492 3 c17
-14 36 -68 68 -196 23 -91 20 -105 -26 -116 -40 -10 -62 9 -70 60 -6 41 -26
66 -40 51 -3 -3 -8 -24 -11 -47 -6 -45 -28 -63 -71 -58 -26 3 -27 5 -26 63 0
67 39 218 61 241 18 17 93 19 115 2z m205 4 c6 -4 15 -20 18 -35 4 -15 9 -27
11 -27 3 0 18 16 35 35 34 39 53 43 81 18 32 -29 23 -59 -29 -94 -27 -18 -51
-37 -55 -42 -3 -6 16 -27 42 -48 27 -21 51 -43 55 -49 9 -15 -20 -57 -47 -66
-17 -5 -28 1 -52 31 l-29 37 -11 -33 c-8 -23 -19 -35 -39 -40 -43 -11 -55 -2
-66 49 -13 63 -2 239 16 258 16 15 51 18 70 6z m378 -2 c23 -9 26 -15 23 -47
-3 -38 -3 -38 -50 -41 -60 -4 -67 -29 -10 -34 32 -3 37 -6 37 -28 0 -22 -5
-25 -37 -28 -53 -4 -52 -32 0 -32 45 0 62 -14 62 -52 0 -36 -28 -50 -104 -51
-87 -1 -103 11 -112 79 -3 30 -3 76 1 102 6 40 11 83 14 115 3 24 126 36 176
17z"/>
<path d="M3717 1516 c-49 -18 -74 -41 -87 -81 -12 -35 -2 -72 23 -93 13 -11
12 -16 -9 -37 -29 -30 -30 -54 -3 -89 34 -43 77 -60 154 -60 87 -1 133 22 153
76 18 47 10 81 -28 115 l-30 26 25 13 c15 7 40 10 60 7 l36 -6 -3 -94 c-2 -90
-1 -96 21 -114 33 -27 67 -33 102 -19 40 17 49 44 49 146 l0 84 34 0 c30 0 37
-5 60 -46 17 -31 26 -62 26 -91 0 -56 11 -77 49 -93 65 -27 121 10 121 79 0
31 8 58 23 81 l22 35 5 -78 c5 -78 7 -82 52 -107 35 -21 133 -24 171 -5 30 14
39 14 59 4 36 -20 159 -17 191 4 30 20 37 69 14 101 -15 21 -14 101 3 120 20
25 8 87 -21 108 -36 27 -133 35 -182 15 -46 -20 -57 -46 -57 -143 l0 -74 -29
0 -28 0 -7 89 c-6 76 -11 92 -32 112 -24 23 -33 24 -124 18 -14 -1 -42 2 -62
6 -31 6 -40 4 -63 -19 -23 -23 -28 -25 -41 -11 -29 28 -49 31 -231 34 -170 2
-183 1 -199 -17 -16 -20 -17 -20 -58 -1 -48 22 -106 24 -159 5z m161 -26 c38
-24 42 -53 8 -75 -27 -18 -71 -12 -80 11 -7 19 -32 18 -40 -2 -10 -25 10 -41
65 -54 74 -18 109 -75 79 -131 -38 -69 -243 -69 -265 1 -13 42 12 69 67 70 9
0 29 -11 44 -25 32 -29 37 -30 54 -9 20 23 -5 42 -70 54 -92 17 -123 68 -78
125 44 56 153 74 216 35z m340 -27 l3 -43 -40 0 -41 0 0 -98 c0 -65 -4 -104
-13 -116 -16 -22 -85 -25 -99 -4 -5 7 -7 58 -4 116 l6 102 -39 0 c-36 0 -39 2
-45 35 -4 20 -4 40 -1 45 4 7 57 9 138 8 l132 -3 3 -42z m106 41 c9 -4 20 -29
28 -65 15 -73 34 -76 43 -9 4 28 14 57 22 65 19 19 67 19 87 0 18 -18 14 -30
-35 -127 -18 -35 -35 -85 -38 -113 -5 -41 -10 -52 -33 -63 -18 -8 -34 -9 -51
-3 -21 8 -25 17 -29 68 -3 40 -12 71 -30 99 -23 35 -35 97 -29 147 1 8 43 9
65 1z m306 -8 c6 -8 14 -58 17 -110 4 -59 10 -96 17 -97 18 -1 47 -7 62 -13
19 -7 18 -60 -1 -76 -20 -16 -135 -16 -165 0 -23 12 -23 14 -17 151 3 76 8
143 12 148 9 16 61 13 75 -3z m325 4 c23 -9 26 -15 23 -47 -3 -38 -3 -38 -50
-41 -34 -2 -48 -7 -48 -18 0 -10 12 -14 41 -14 38 0 40 -1 37 -27 -3 -24 -8
-28 -40 -31 -57 -5 -50 -30 10 -34 46 -3 47 -3 50 -40 3 -29 -1 -39 -19 -48
-24 -13 -122 -17 -155 -6 -26 8 -34 55 -34 187 0 83 1 89 26 108 30 23 112 29
159 11z"/>
</g>
</svg>
