<?xml version="1.0" encoding="UTF-8"?>
<svg viewBox="0 0 296 283" xmlns="http://www.w3.org/2000/svg">
 <path d="m163.23 281.04c-16.063-4.3382-34.052-16.879-54.923-38.29l-11.193-11.483-4.7325 3.3647c-5.2363 3.7228-8.5861 4.1495-17.581 2.2394-8.5809-1.8221-16.682-6.514-23.884-13.834-5.6088-5.7-7.0038-7.8664-9.4118-14.617-3.4505-9.6726-4.1051-10.514-5.0019-6.4313-1.1041 5.0268 0.23555 10.896 4.4565 19.524 2.1478 4.3904 3.5464 8.3497 3.1078 8.7984-1.3267 1.3575-8.0147-7.4047-9.5195-12.472-2.3779-8.0073-2.7146-13.034-1.2433-18.564 1.3468-5.0629 1.3173-5.2876-0.9786-7.4445-1.302-1.2232-3.1972-4.949-4.2115-8.2795-1.8249-5.9924-1.856-6.0261-2.9785-3.2404-2.1274 5.2796-1.3999 12.977 1.8019 19.064 3.0884 5.8711 2.5436 8.245-1.1405 4.9691-3.0616-2.7224-5.7488-9.2597-5.7738-14.046-0.01208-2.3091 1.1235-7.8243 2.5234-12.256 2.8653-9.0702 2.5676-12.042-1.8587-18.556l-2.5356-3.7314-2.5093 2.5093c-1.3801 1.3801-2.7991 4.247-3.1534 6.371-1.1046 6.6217-1.4312 7.1332-3.1044 4.8617-0.81024-1.1-1.2281-3.0125-0.92858-4.25s0.81788-3.373 1.1519-4.7456c0.59409-2.4413 0.50998-2.4822-3.8682-1.8821-4.7187 0.64677-6.7401-0.54665-4.3233-2.5524 0.76659-0.63621 4.5725-1.9027 8.4575-2.8145 6.8297-1.6028 7.0399-1.7422 6.3452-4.2066-1.7778-6.3062-0.75154-13.384 3.1854-21.968 4.9316-10.753 5.0869-14.448 0.82423-19.62-4.3986-5.3363-4.2779-8.7343 0.4693-13.212 3.5222-3.3219 3.6079-3.5526 1.8089-4.8681-2.2565-1.65-5.1374-1.7541-9.2137-0.33311-6.2482 2.1781-6.7245 8.7259-1.2614 17.34 3.4018 5.3641 3.0375 7.9645-0.63276 4.5164-2.7396-2.5737-2.5829-2.6616-4.4826 2.5158-0.79113 2.1562-2.0631 4.1287-2.8267 4.3832-1.1234 0.37446-1.2309-0.37356-0.56354-3.9204 0.45359-2.4108 0.74551-7.7582 0.6487-11.883-0.20188-8.6019 1.5578-12.603 7.0665-16.068 2.5271-1.5896 4.3261-1.9351 8.0091-1.538l4.75 0.51214v-4.4387c0-4.0654 0.33403-4.6598 3.972-7.0672 5.229-3.4604 9.0216-9.9886 9.05-15.578 0.03224-6.3456 2.9655-11.794 9.0754-16.858 2.9629-2.4554 7.7553-7.002 10.65-10.103 5.564-5.9618 15.379-12.368 24.352-15.894 2.9702-1.1671 7.6504-3.3805 10.4-4.9187 6.0923-3.4077 8.5449-4.0179 18.353-4.5662 4.2057-0.2351 13.037-1.5648 19.624-2.955 9.7977-2.0675 14.746-2.5276 27.185-2.5276 8.3639 0 16.353 0.43567 17.754 0.96816 2.1814 0.82938 2.4595 1.4028 1.9401 4-0.58501 2.925-0.48002 3.0318 2.9811 3.0318 1.9731 0 5.9669 0.85956 8.875 1.9101s7.4127 2.2013 10.01 2.5572c7.4112 1.0154 13.283 5.6686 19.203 15.218 9.8535 15.894 12.704 17.768 25.509 16.766 7.2949-0.57067 9.3943-0.38902 12.492 1.0809 4.7916 2.2738 6.1566 4.5044 7.6298 12.468 0.66133 3.575 2.2285 8.525 3.4826 11 1.2541 2.475 3.2843 7.8269 4.5116 11.893 1.7985 5.959 2.0586 8.2868 1.3405 12-0.48998 2.5338-1.3224 4.6069-1.8499 4.6069s-1.4587-2.475-2.0693-5.5c-1.4682-7.2734-4.572-17-5.4246-17-0.37358 0-1.9506 2.6601-3.5046 5.9113l-2.8254 5.9113 5.0623 10.839c2.7843 5.9613 5.32 12.639 5.635 14.839s-0.03502 9.85-0.77774 17-0.97976 13.413-0.52678 13.917c0.49627 0.55236 3.5639 0.39962 7.7186-0.3843 9.1901-1.734 15.613-0.74535 19.334 2.9763 3.3733 3.3733 3.5375 5.6986 0.78372 11.097-3.283 6.4352-5.2789 4.2599-3.4523-3.7625 0.6138-2.6958 0.34542-3.4019-1.8362-4.8314-2.217-1.4526-4.0505-1.5641-13.856-0.8428l-11.301 0.83136-0.32649 2.8544-0.32649 2.8544 5.0721-0.6976c4.1616-0.57237 5.1827-0.40931 5.6884 0.90838 0.92653 2.4145-1.4018 4.524-5.7632 5.2214l-3.896 0.62299 3.9658 3.3946c4.6114 3.9472 8.3892 11.338 10.146 19.849 2.6832 12.999-2.2938 23.634-11.541 24.661-4.7795 0.531-4.3776-2.4275 0.83853-6.1735 2.4557-1.7635 4.7238-4.1714 5.0402-5.3508 0.92648-3.4531 0.68787-8.6444-0.39733-8.6444-0.55 0-1 0.52002-1 1.1556s-1.1479 2.6606-2.5509 4.5c-4.617 6.0533-7.4859 3.1974-3.4454-3.4298 3.1573-5.1785 2.3641-22.226-1.0342-22.226-0.39019 0-0.93694 2.0184-1.215 4.4854s-1.6866 6.8993-3.13 9.8497c-1.9897 4.0669-2.6245 6.8924-2.6245 11.683 0 3.4751-0.49746 9.1751-1.1055 12.667-1.0874 6.2441-1.2466 6.4789-9.7177 14.332-4.7367 4.3911-9.1342 7.9838-9.7721 7.9838-2.8456 0-3.5605-2.7201-2.3423-8.912 1.0472-5.3227 0.98376-6.3684-0.5258-8.6723-0.9441-1.4409-1.4806-3.5222-1.1922-4.625 0.62639-2.3953-0.8751-6.7906-2.3198-6.7906-0.56361 0-1.0248 0.81113-1.0248 1.8025 0 2.7447-6.7104 29.654-9.6502 38.697-6.0886 18.731-16.918 33.768-28.184 39.132-7.615 3.6263-17.825 4.1421-27.937 1.4112zm24.551-5.0303c12.588-5.7132 27.025-31.396 35.422-63.013 2.8122-10.588 3.0938-13.156 3.5526-32.388 0.51229-21.475 0.06176-23.811-3.142-16.294-0.74579 1.7499-2.575 4.3066-4.0649 5.6816-2.3254 2.146-3.6533 2.5-9.3789 2.5-5.1469 0-6.67-0.3297-6.67-1.4438 0-1.1284 1.3108-1.3841 6-1.1704 5.8029 0.26451 5.941 0.21338 4.204-1.5562-0.98778-1.0063-2.3594-2.6549-3.048-3.6636-1.1825-1.7321-1.5805-1.7482-7.169-0.2888-12.886 3.3651-6.8792-3.7449 9.333-11.046 10.576-4.763 11.695-5.5462 10.897-7.6259-0.43258-1.1273-2.496-0.49853-9.7596 2.9738-5.0661 2.4218-9.6704 4.2502-10.232 4.0631-1.5222-0.50741 5.9989-6.1381 12.378-9.2666 5.5881-2.7406 5.5887-2.7415 5.761-7.6081 0.09475-2.6769-0.2355-4.8672-0.73389-4.8672s-3.2753-1.6297-6.171-3.6215l-5.2648-3.6215 0.64792 4.7271c0.35636 2.5999 1.6354 6.4842 2.8424 8.6317 2.4003 4.2708 1.5955 6.5842-1.9041 5.4735-2.832-0.89885-5.0148-6.3412-6.2959-15.698-1.916-13.994-7.7216-18.691-21.371-17.293-6.0773 0.62264-6.5997 0.50732-9.1201-2.0131-2.3365-2.3365-2.6309-3.33-2.3353-7.8796 0.32825-5.0524 0.20534-5.3286-4.1626-9.3548l-4.5008-4.1487-3.9144 2.0082c-4.6041 2.3621-10.606 1.9803-13.767-0.8757-1.1168-1.0091-3.0865-3.9172-4.3773-6.4624-2.7586-5.4397-12.404-17.685-18.411-23.372-2.3234-2.2-7.8744-8.4411-12.336-13.869s-8.2666-9.4026-8.4567-8.8322c-0.53805 1.6142 5.0746 12.066 10.043 18.701 2.4708 3.3 8.1385 10.05 12.595 15s9.1016 10.878 10.323 13.172c2.1791 4.0956 2.1886 4.272 0.51289 9.5879-0.93891 2.9785-1.7177 6.726-1.7307 8.3276-0.01806 2.2251-0.97018 3.6125-4.0359 5.8809-4.694 3.4733-5.3486 5.3921-4.5133 13.23 0.34001 3.1907 0.77559 9.4013 0.96795 13.801s1.1946 10.475 2.2273 13.5l1.8776 5.5 15.5 0.5c14.183 0.4575 15.876 0.71249 19.927 3 2.4346 1.375 4.6308 3.1262 4.8805 3.8915 0.48734 1.4938 0.78687 1.5321-10.307-1.3169-3.3-0.84745-11.465-1.8395-18.145-2.2045l-12.145-0.6637-2.6732 4.2347c-2.1375 3.386-4.1164 4.8923-9.8746 7.5164-3.9607 1.805-7.7105 3.9029-8.3328 4.6621-2.2583 2.7552-9.4755 30.577-11.842 45.65-0.656 4.1784-0.52048 4.4464 6.3197 12.5 9.1407 10.762 25.9 26.939 34.645 33.44 17.132 12.738 38.11 18.395 49.329 13.303zm-10.584-24.603c-2.858-1.4242-5.1963-3.0473-5.1963-3.607 0-0.58496 0.74396-0.70223 1.75-0.27585 10.532 4.4636 16.09 4.3625 22.741-0.41356 2.385-1.7128 4.8583-3.1142 5.4962-3.1142 2.5868 0 0.19869 3.6976-4.3595 6.75-6.328 4.2375-12.831 4.4478-20.431 0.66055zm-8.4491-10.558c0.61863-0.61863 5.5411-1.3433 10.939-1.6105 6.6282-0.32802 12.202-1.2773 17.17-2.9244 4.046-1.3413 7.5976-2.1974 7.8925-1.9025 1.1104 1.1104-2.0982 3.5846-4.6487 3.5846-1.4603 0-3.5427 0.60865-4.6276 1.3526-2.5602 1.7555-28.433 3.2079-26.725 1.5002zm7.2528-5.4946c0-2.1631 19.997-6.3407 23.647-4.9401 3.0181 1.1582 0.07645 2.3385-8.6472 3.4697-4.675 0.6062-9.9625 1.3805-11.75 1.7207s-3.25 0.22754-3.25-0.2503zm2.109-16.291c-0.76445-0.47246-1.0328-1.3818-0.60969-2.0664 0.56177-0.90897 3.3524-1.0456 10.879-0.53253 10.009 0.68219 10.152 0.66048 12.565-1.9085l2.4412-2.5986-2.1519-5.9807c-1.6633-4.6228-1.8455-5.9807-0.80258-5.9807 1.6488 0 5.5696 8.0486 5.5696 11.433 0 1.3503-1.0853 3.7177-2.4117 5.2609-2.342 2.7246-2.7256 2.8117-13.263 3.0114-5.9681 0.11308-11.465-0.17411-12.216-0.63819zm-39.775-37.353c-1.1913-0.66801-3.0973-2.4023-4.2356-3.854-2.4926-3.1789-1.954-3.7992 5.9138-6.8121 3.0183-1.1558 6.6129-2.7486 7.9879-3.5395l2.5-1.438-2.7383-0.03543c-1.5061-0.01949-6.5431 1.5396-11.193 3.4646-9.5188 3.9403-10.568 4.1354-10.568 1.9645 0-3.1626 19.223-9.4212 29-9.4418 9.1384-0.0192 16.196 2.8136 11.5 4.6157-0.825 0.31659-1.5 1.6058-1.5 2.865 0 3.1015-6.2504 8.4966-9.8437 8.4966-1.5257 0-3.6476-0.66069-4.7152-1.4682-2.5963-1.9637-4.4203-1.8911-9.4884 0.378l-4.2657 1.9098 3.9065 1.0846c2.1486 0.59654 5.594 1.0871 7.6565 1.0902s3.75 0.45558 3.75 1.0056c0 1.4123-11.05 1.1815-13.666-0.28544zm-47.777 47.999c1.8798-1.2174 3.4234-2.5509 3.4302-2.9634 0.01918-1.162-0.98936-0.89112-2.571 0.69052-0.79228 0.79228-3.4282 1.7386-5.8577 2.1029-3.325 0.49861-4.2776 1.0262-3.8525 2.1339 0.70912 1.8479 4.1409 1.0865 8.851-1.9639zm134.94-74.713c1.1934-1.931-0.50232-2.9561-3.0044-1.8161-1.3381 0.60968-2.1955 1.4927-1.9053 1.9623 0.72755 1.1772 4.1548 1.0751 4.9096-0.14623zm-124.26-26.978c3.6852-2.8988 6.1351-8.892 9.7562-23.867 2.5912-10.716 3.8147-14.014 6.2112-16.744 2.5541-2.9089 2.7466-3.4902 1.3353-4.0317-1.8805-0.7216-5.9933 2.6908-8.0833 6.7067-0.74036 1.4226-2.5269 7.2445-3.97 12.938-3.3159 13.081-4.8334 16.689-8.701 20.685-2.6092 2.696-2.9013 3.4554-1.8269 4.75 1.6549 1.994 2.251 1.9447 5.2786-0.43673zm-4.7619-24.411c3.5821-4.6964 5.5067-10.918 6.421-20.757 0.57105-6.145 1.4477-9.6875 3.0314-12.25 2.0051-3.2444 2.062-3.6688 0.56893-4.2418-2.9164-1.1191-4.5678 2.0612-6.6098 12.729-3.2444 16.949-3.9319 18.883-8.5704 24.106-2.3781 2.6776-4.3239 5.2284-4.3239 5.6684 0 3.2156 5.2342 0.31495 9.4827-5.2551zm102.54-0.08863c-1.8743-2.2584-11.008-6.3827-15.769-7.1202-4.0649-0.62973-4.2565-0.54397-4.4 1.9694-0.0825 1.4453-0.195 3.1903-0.25 3.8778-0.07393 0.92418 1.8549 1.165 7.4 0.92391 4.125-0.17935 8.625 0.12962 10 0.68661 3.5737 1.4476 4.4219 1.3528 3.0191-0.33755zm-113.76-3.273c3.6349-3.7967 6.8742-11.535 11.661-27.856 4.4898-15.309 4.5069-15.394 3.0949-15.394-1.6511 0-6.864 11.407-11.482 25.125-3.0082 8.936-5.1832 13.749-6.9547 15.391-2.6263 2.434-3.1001 3.6285-1.9109 4.8177 1.2796 1.2796 2.9782 0.6468 5.5919-2.0833zm143.39-9.9548c-2.4072-9.8634-11.82-28.312-16.691-32.712-3.7815-3.4164-5.9752-4.4614-5.9468-2.8328 0.00719 0.4125 2.2643 4.1122 5.0158 8.2216 2.9303 4.3764 7.1046 12.869 10.077 20.5 5.5129 14.156 6.6472 16.176 8.207 14.616 0.66295-0.66296 0.44133-3.2749-0.66118-7.7924zm-150.45-18.045c3.7538-4.0057 6.5154-10.053 9.2399-20.233 3.4382-12.848 0.62364-13.006-4.3678-0.24654-3.0341 7.7563-7.0183 15.428-9.3118 17.929-2.1047 2.2957-1.8109 5.3009 0.51835 5.3009 0.73936 0 2.504-1.2375 3.9214-2.75zm175.36-11.743c-1.0052-5.3582-5.5306-8.5066-12.227-8.5066-3.9571 0-5.3913 0.35174-5.097 1.25 0.59498 1.8156 17.192 12.76 17.608 11.611 0.19318-0.53266 0.06537-2.4922-0.284-4.3545zm-72.568 3.1924c0.00121-1.5147-6.9414-3.699-11.757-3.699-4.97 0-16.121 2.483-17.548 3.9076-0.4433 0.44244 5.9689 0.75673 14.249 0.69843s15.056-0.46646 15.056-0.90703zm-9.738-11.09c5.4251 0.61379 5.9086 0.51207 5.5837-1.1749-0.46499-2.4145-6.6442-3.7684-13.653-2.9914-8.5922 0.95241-22.144 7.207-20.695 9.5514 0.24708 0.39979 5.4839-0.7995 11.637-2.6651 9.5663-2.9003 12.049-3.2946 17.128-2.72zm-92.047-7.8591c8.5862-10.113 10.163-14.428 3.3827-9.2564-3.7129 2.832-9.5972 10.912-9.5972 13.178 0 2.4529 1.7284 1.3623 6.2146-3.9214zm65.785-7.2827c2.3896-1.2488 6.6692-2.0097 13.49-2.3982 8.4246-0.47992 10.042-0.8415 10.321-2.3081 1.3757-7.2129-28.192-2.2129-33.336 5.6372-0.93206 1.4225-1.4153 3.3145-1.0738 4.2044 0.54025 1.4078 1.0417 1.2982 3.86-0.84407 1.7815-1.3542 4.814-3.2852 6.739-4.2913zm-12.227-5.5156c1.9058-2.2266 5.0915-4.814 7.0792-5.75 4.3123-2.0305 4.6662-3.5844 0.91461-4.0165-2.1601-0.24879-3.7844 0.73681-7.75 4.7024-2.7594 2.7594-5.0172 5.9386-5.0172 7.0648 0 2.9321 0.85937 2.5719 4.7733-2.0007zm-4.7677-8.7991c3.2969-3.2161 5.9944-6.3661 5.9944-7 0-3.6393-9.9228 1.8637-12.562 6.9663-1.416 2.7382-1.3969 5.8811 0.0357 5.8811 0.29533 0 3.2344-2.6313 6.5314-5.8474z"/>
</svg>
