<?xml version="1.0" standalone="no"?>
<!DOCTYPE svg PUBLIC "-//W3C//DTD SVG 20010904//EN"
 "http://www.w3.org/TR/2001/REC-SVG-20010904/DTD/svg10.dtd">
<svg xmlns="http://www.w3.org/2000/svg" width="80" viewBox="0 0 512 512" preserveAspectRatio="xMidYMid meet">
  <g transform="translate(0,512) scale(0.1,-0.1)" fill="white" stroke="none">
    <path d="M536 5088 c-8 -13 -17 -36 -20 -53 -12 -64 -516 -4795 -516 -4849 0 -31 7 -70 15 -85 22 -44 71 -79 118 -86 53 -8 4921 482 4957 498 16 8 26 22 28 39 3 22 -3 32 -29 47 -18 11 -519 259 -1113 552 -595 292 -1084 535 -1089 538 -4 4 438 447 983 986 746 738 992 986 999 1010 5 18 6 45 4 61 -8 42 -1045 1079 -1087 1087 -16 2 -43 1 -61 -4 -24 -7 -282 -256 -1021 -988 -544 -538 -993 -980 -997 -982 -4 -2 -250 493 -546 1100 -296 608 -548 1115 -559 1128 -26 29 -48 29 -66 1z"/>
  </g>
</svg>
