<?xml version="1.0" standalone="no"?>
<!DOCTYPE svg PUBLIC "-//W3C//DTD SVG 20010904//EN"
 "http://www.w3.org/TR/2001/REC-SVG-20010904/DTD/svg10.dtd">
<svg version="1.0" xmlns="http://www.w3.org/2000/svg"
 width="256.000000pt" height="144.000000pt" viewBox="0 0 256.000000 144.000000"
 preserveAspectRatio="xMidYMid meet">
<metadata>
Created by potrace 1.16, written by Peter Selinger 2001-2019
</metadata>
<g transform="translate(0.000000,144.000000) scale(0.100000,-0.100000)"
fill="#000000" stroke="none">
<path d="M1714 829 c-3 -5 -5 -19 -4 -32 5 -60 21 -56 -232 -60 l-233 -3 280
-1 c279 -2 345 -7 345 -25 0 -5 -18 -17 -40 -26 -23 -10 -38 -22 -35 -29 2 -7
1 -15 -4 -17 -11 -7 -10 26 1 41 7 8 3 10 -11 6 -19 -5 -31 -22 -37 -55 -6
-27 12 -22 100 27 45 25 88 50 96 54 8 5 15 14 15 21 0 17 -64 53 -82 46 -8
-3 -12 -2 -9 2 3 5 -8 16 -24 25 -35 21 -118 38 -126 26z"/>
</g>
</svg>
